# xmcd
#
# Track frame offsets:
#	150
#	11648
#	22450
#	35087
#	46162
#	57230
#	70334
#	81424
#	94470
#	106531
#	119317
#	131731
#	143508
#	153786
#	166731
#	176428
#	188691
#	201473
#	212208
#	222081
#
# Disc length: 3113 seconds
#
# Revision: 1
# Processed by: cddbd v1.5.2PL0 Copyright (c) Steve Scherf et al.
# Submitted via: audiograbber 1.83.01
#
DISCID=1e0c2714
DTITLE=James Brown - The Federal Years - 1956-1960 Disc 2
DYEAR=2006
DGENRE=Soul
TTITLE0=Try Me
TTITLE1=Tell Me What I Did Wrong
TTITLE2=I Want You So Bad
TTITLE3=There Must Be A Reason
TTITLE4=I've Got to Change
TTITLE5=It Hurts to Tell You
TTITLE6=I've Got to Change (stereo)
TTITLE7=It Hurts to Tell You (stereo)
TTITLE8=Doodle Bee
TTITLE9=Bucket Head
TTITLE10=It Was You
TTITLE11=Got to Cry
TTITLE12=Good Good Lovin'
TTITLE13=Don't Let It Happen to Me
TTITLE14=I'll Go Crazy
TTITLE15=I Know It's True
TTITLE16=Think
TTITLE17=You've Got the Power
TTITLE18=This Old Heart
TTITLE19=Wonder When You're Coming Home
EXTD=
EXTT0=
EXTT1=
EXTT2=
EXTT3=
EXTT4=
EXTT5=
EXTT6=
EXTT7=
EXTT8=
EXTT9=
EXTT10=
EXTT11=
EXTT12=
EXTT13=
EXTT14=
EXTT15=
EXTT16=
EXTT17=
EXTT18=
EXTT19=
PLAYORDER=
